<?xml version="1.0" encoding="utf-8"?>
<!-- Generator: Adobe Illustrator 23.0.2, SVG Export Plug-In . SVG Version: 6.00 Build 0)  -->
<svg version="1.1" id="bb5d7bf9-f1d1-4967-8b85-2debba85734f"
	 xmlns="http://www.w3.org/2000/svg" xmlns:xlink="http://www.w3.org/1999/xlink" x="0px" y="0px" viewBox="0 0 537 400.1"
	 style="enable-background:new 0 0 537 400.1;" xml:space="preserve">
<style type="text/css">
	.st0{fill:#00BEDD;}
	.st1{fill:#006BB3;}
	.st2{fill:#1D3260;}
	.st3{fill:none;}
</style>
<title>gift card</title>
<path class="st0" d="M25.7,110.5c0,0,3.8-107.5,135.9-95.8c132.2,11.6,259.6,73.8,259.6,73.8s-52.1-12-132.2-26.3
	s-130.7-14.9-172.5-10c-39.4,4.6-66,23.5-81.7,44.3"/>
<path class="st1" d="M368.5,61.5l-29.1-11.9c0,0,60.3-30.6,101.5,21.4C440.8,71,395.4,48.2,368.5,61.5z"/>
<path class="st2" d="M421.1,28.7c0,0,92.9-15.4,89.4,106.9c0,0-2.3,81.9-86.4,105.7c0,0-52.4,13-75.3-27.6c0,0,61.5,34.3,106.8-18.4
	c0,0,50.5-49.5,19.9-122.4c0,0-14.8-29.3-33.9-36.9C424.4,29,421.1,28.7,421.1,28.7z"/>
<path class="st1" d="M332.1,114.9c0,0-46.3,95.3,37.5,129.9c0,0,4.9,1.9,9.3,3.3c4.4,1.3,4.4,1.3,4.4,1.3s-74.8,8.9-89.3-74.9
	c0,0-4.8-22.6,2.9-55.3c0,0-131.8,14.6-175.5,63.2c0,0-22,19.8-31,54.1C86.9,250,86.9,250,86.9,250s-43.8-99.2,105.3-129.9
	c0,0,60.9-17.3,213.3-13.4l0,0L332.1,114.9z"/>
<path class="st2" d="M62.6,249.6c0,0-55.7-151.6,194-152.8c0,0,142.4-1.4,199.5,8l9.8,1.3c0,0-101.4-28.3-199.5-33.8
	c0,0-189.6-22.8-227.4,63.9c0,0-19.3,45.3,12.6,97.4L62.6,249.6z"/>
<line class="st3" x1="116.5" y1="243.7" x2="114.5" y2="244.9"/>
<g>
	<path class="st2" d="M134.4,316.7c0,1.3,1.8,2.1,5.3,2.9c2.9,0.9,4.3,2,4.3,3.5c0,2-1.8,3.1-5.3,3.1h-20.6c-3.5,0-5.3-1-5.3-3.1
		c0-1.4,1.1-2.5,3.5-3.4c2.1-0.6,3.5-1.4,4-2.4c0.5-0.9,0.8-2.9,0.8-5.9v-76c0-1.4-1.6-2.4-4.8-3.1c-1.6-0.6-2.8-1-3.3-1.4
		c-0.5-0.3-0.8-1-0.8-2.1c0-2.1,1.8-3.1,5.3-3.1h38.3c11.3,0,20.1,1.5,26.6,4.6c9.6,4.6,14.5,11.9,14.5,21.6
		c0,6.3-2.1,11.9-6.5,16.9c-4.3,5-9.6,9-16.1,11.9c-9.6,4.6-22.9,6.9-39.9,6.9L134.4,316.7L134.4,316.7z M134.4,280.7
		c7,0,14.3-0.9,21.5-2.5c7.3-1.8,13.5-4.6,18.5-8.6c5-4.1,7.5-9.4,7.5-16c0-6.9-3.3-12.3-9.8-16.1c-4.9-3-11.8-4.4-20.6-4.4
		c-6.3,0-10.8,0.6-13.4,1.8c-2.5,1.4-3.8,4.3-3.8,8.9v36.9H134.4z"/>
	<path class="st2" d="M291.1,275.8c5.6,0,10,0.4,13,1.1c1.6,0.4,2.4,1.4,2.4,2.9l-0.5,2.9l-1.1,15.8c0,4.5,0.4,8.4,1.1,11.8
		c0,0.3,0,0.6,0.1,1.1c0.1,0.6,0.1,0.9,0.1,1c0,3.1-4.9,6.6-14.5,10.6c-9.8,3.5-19.4,5.3-28.8,5.3c-16.8,0-30.3-4.3-40.6-12.6
		c-11.8-9.6-17.6-22.1-17.6-37.8c0-10,2.6-19.1,7.8-27.4c5.1-8.3,12.1-14.8,21.1-19.4c8.9-4.8,18.8-7.1,29.5-7.1
		c5.3,0,10.8,0.6,16.6,1.8c5.9,1.1,10.8,2.8,14.8,4.9c3.4,1.8,5.4,3.5,5.9,5.1s0.9,5.1,1,10.4c0,4.6-0.9,6.9-2.6,6.9
		c-1.1,0-2.3-1-3.3-2.9c-3-6.4-6.6-11-11-13.8c-6.4-3.6-13.5-5.5-21.6-5.5c-8.8,0-16.5,2.3-23,6.8s-11.5,10.4-15,17.6
		c-3.4,7.3-5.1,14.9-5.1,23c0,11.8,3.9,21.8,11.6,29.9c8.3,8.9,19,13.3,32.1,13.3c9.8,0,17.1-1.9,22.4-5.8c2.9-2,4.6-4.6,5.5-8
		c0.9-3.3,1.3-7.4,1.3-12.1c0-3.9-0.3-6.8-0.9-8.4s-1.8-2.8-3.6-3.4c-1.8-0.5-4.8-0.9-9.1-1.1c-3.5,0-6.1-0.3-8.1-0.9
		c-1.3-0.4-1.9-1.4-1.9-3.1c0-1.1,0.6-2,1.9-2.4c1.3-0.3,4.6-0.4,10.3-0.4L291.1,275.8L291.1,275.8z"/>
</g>
<g>
</g>
<g>
	<path class="st2" d="M27.2,391c-1.5,0-2.7-0.1-3.4-0.4c-0.7-0.3-1.1-0.9-1.1-1.7c0-0.6,0.4-1.2,1.2-1.9c0.9-0.5,1.6-1.2,1.9-2.1
		l2.3-7c1.5-4.8,4.5-12,8.8-21.6c1.3-3.1,2.9-6.2,4.6-9.4c0.6-1,1.1-1.6,1.7-1.8c0.6-0.2,1.5-0.4,2.8-0.4c1.7,0,2.9,0.2,3.6,0.7
		c0.7,0.5,1.4,1.5,2.1,3.1l12.8,30l2.2,6.5c0.2,0.6,0.4,0.9,0.6,1.1c0.2,0.2,0.6,0.5,1.2,1c0.8,0.4,1.3,1,1.3,1.8
		c0,1.4-1.1,2.2-3.2,2.2H56.1c-2.6,0-3.9-0.7-3.9-2.1c0-0.7,0.5-1.3,1.4-1.8s1.4-1,1.4-1.4c0-1.1-0.9-3.9-2.6-8.6l-0.3-1H34.6
		c-0.1,0.3-0.3,1.1-0.8,2.5c-0.5,1.4-0.9,2.6-1.1,3.6c-0.3,1-0.4,1.7-0.4,2.3c0,0.6,0.1,1.1,0.4,1.4c0.3,0.3,0.7,0.6,1.2,1
		s0.9,0.6,1.2,0.9c0.3,0.3,0.4,0.7,0.4,1.2c0,0.8-0.4,1.4-1.2,1.7c-0.8,0.3-2,0.4-3.6,0.4H27.2z M50.4,371.1l-0.3-0.9l-6.7-15.7
		l-7.1,16.6H50.4z"/>
	<path class="st2" d="M107.1,353.1c0-0.4-0.1-1-0.3-2c-0.4-0.8-1.2-1.4-2.5-1.8c-1-0.5-1.6-1.3-1.6-2.2c0-1.3,1.4-2,4.3-2h5.4
		c2.8,0,4.2,0.7,4.2,2c0,0.9-0.5,1.6-1.5,2.2c-1.3,0.4-2.1,1-2.4,1.8c-0.2,0.4-0.3,1-0.4,2V387c0,1.9-0.2,3.1-0.6,3.6
		s-1.5,0.8-3.4,0.8c-1.5,0-2.6-0.3-3.2-0.9c-0.6-0.6-2.1-2.7-4.6-6.6L81.1,357v26.2c0.1,1,0.3,1.7,0.4,2.1c0.1,0.4,0.3,0.7,0.6,0.9
		c0.2,0.2,0.5,0.4,0.8,0.5s0.6,0.3,0.9,0.4c1.1,0.4,1.7,1.1,1.7,2.1c0,1.3-1.4,2-4.3,2h-5.4c-2.8,0-4.2-0.7-4.2-2
		c0-1,0.5-1.7,1.5-2.1c0.8-0.3,1.3-0.5,1.6-0.7c0.3-0.2,0.6-0.5,0.8-1c0.1-0.4,0.3-1.1,0.4-2.1v-27.7c0-0.7,0-1.3,0-2
		c0-0.7-0.1-1.3-0.3-1.8c-0.2-0.5-0.4-0.9-0.8-1.3c-0.4-0.4-0.9-0.7-1.6-0.9c-0.8-0.3-1.4-0.6-1.8-0.8c-0.4-0.3-0.6-0.7-0.6-1.4
		c0-1.4,1.2-2.2,3.6-2.2H83c1.2,0,2.1,0.1,2.5,0.2c0.4,0.1,1,0.6,1.8,1.4c1.1,1.2,2.3,2.6,3.5,4.2c1.3,1.6,2.4,3.2,3.5,4.7
		c1.1,1.5,2.6,3.5,4.4,6.2l8.4,11.9V353.1z"/>
	<path class="st2" d="M121,391c-1.5,0-2.7-0.1-3.4-0.4c-0.7-0.3-1.1-0.9-1.1-1.7c0-0.6,0.4-1.2,1.2-1.9c0.9-0.5,1.6-1.2,1.9-2.1
		l2.3-7c1.5-4.8,4.5-12,8.8-21.6c1.3-3.1,2.9-6.2,4.6-9.4c0.6-1,1.1-1.6,1.7-1.8c0.6-0.2,1.5-0.4,2.8-0.4c1.7,0,2.9,0.2,3.6,0.7
		c0.7,0.5,1.4,1.5,2.1,3.1l12.8,30l2.2,6.5c0.2,0.6,0.4,0.9,0.6,1.1c0.2,0.2,0.6,0.5,1.2,1c0.8,0.4,1.3,1,1.3,1.8
		c0,1.4-1.1,2.2-3.2,2.2h-10.6c-2.6,0-3.9-0.7-3.9-2.1c0-0.7,0.5-1.3,1.4-1.8s1.4-1,1.4-1.4c0-1.1-0.9-3.9-2.6-8.6l-0.3-1h-17.5
		c-0.1,0.3-0.3,1.1-0.8,2.5c-0.5,1.4-0.9,2.6-1.1,3.6c-0.3,1-0.4,1.7-0.4,2.3c0,0.6,0.1,1.1,0.4,1.4c0.3,0.3,0.7,0.6,1.2,1
		c0.5,0.3,0.9,0.6,1.2,0.9c0.3,0.3,0.4,0.7,0.4,1.2c0,0.8-0.4,1.4-1.2,1.7c-0.8,0.3-2,0.4-3.6,0.4H121z M144.1,371.1l-0.3-0.9
		l-6.7-15.7l-7.1,16.6H144.1z"/>
	<path class="st2" d="M168.1,353.2c0-1.9-0.4-3-1.2-3.5l-0.7-0.3c-1-0.6-1.5-1.3-1.5-2.1c0-1.4,1-2.2,3.1-2.2h11.8
		c2.1,0,3.1,0.7,3.1,2.2c0,0.8-0.5,1.5-1.4,2.1l-0.7,0.3c-0.8,0.5-1.1,1.7-1.1,3.5v29.4c0,1.8,0.3,2.8,0.8,3.2
		c0.5,0.4,1.7,0.6,3.6,0.7h2.4c2.1,0,3.8-0.2,5.1-0.6c1.3-0.4,2.5-1.2,3.7-2.5c1.1-1.2,1.8-2,2.3-2.4c0.5-0.5,1.1-0.7,1.8-0.7
		c0.6,0,1.1,0.2,1.6,0.6c0.5,0.4,0.7,0.9,0.7,1.4c0,1.2-0.5,3.1-1.4,5.7c-0.4,1.3-0.8,2.1-1.3,2.4c-0.5,0.3-1.4,0.5-2.9,0.5h-28
		c-2.1,0-3.1-0.7-3.1-2.2c0-0.5,0.1-0.9,0.3-1.1s0.6-0.5,1.1-0.8l0.7-0.4c0.8-0.5,1.2-1.6,1.2-3.4V353.2z"/>
	<path class="st2" d="M232.8,360.2l2.1-3.4c1.8-2.7,2.8-4.6,2.8-5.6c0-0.4-0.1-0.8-0.4-1c-0.3-0.3-0.7-0.5-1.2-0.9s-0.9-0.6-1.1-0.9
		c-0.2-0.3-0.4-0.6-0.4-1c0-1.4,1.1-2.2,3.4-2.2h5.4c1.4,0,2.4,0.1,3.1,0.4s1,0.8,1,1.8c0,0.6-0.4,1.3-1.3,2c-0.8,0.6-1.3,1-1.5,1.2
		c-0.2,0.2-0.6,0.7-1.1,1.6l-13.7,20.2v10.9c0,1.3,0.1,2.1,0.3,2.6c0.2,0.4,0.8,0.8,1.6,1.2c1,0.5,1.5,1.2,1.5,2
		c0,1.4-1,2.2-3.1,2.2h-11.8c-2.3,0-3.4-0.7-3.4-2.2c0-0.7,0.5-1.4,1.5-1.9c1-0.6,1.5-1,1.7-1.4c0.2-0.4,0.3-1.2,0.3-2.6v-10.3
		l-12.9-20c-0.5-0.9-0.9-1.6-1.3-1.9s-1-0.7-2-1.3c-1.2-0.6-1.8-1.4-1.8-2.3c0-0.9,0.5-1.5,1.6-1.8s2.8-0.4,5.2-0.4h9.5
		c2.2,0,3.3,0.8,3.3,2.3c0,0.4-0.1,0.7-0.3,1c-0.2,0.2-0.6,0.5-1.1,0.8c-0.5,0.3-0.9,0.5-1.1,0.7s-0.3,0.4-0.3,0.7
		c0,1.4,1,3.5,3,6.5l7.2,10.6L232.8,360.2z"/>
	<path class="st2" d="M262.4,353.4c0-1.3-0.1-2.2-0.4-2.7c-0.3-0.5-0.9-0.7-2.1-0.7c-2.1,0-3.6,0.3-4.6,0.9c-1,0.6-2,1.5-3,2.6
		c-1,1.1-1.9,1.6-2.6,1.6c-1.6,0-2.4-0.8-2.4-2.4c0-0.7,0.1-1.4,0.3-2c0.5-3.1,1-4.8,1.5-5.1c0.4-0.3,1.3-0.4,2.8-0.4h32.1
		c1.5,0,2.4,0.1,2.8,0.4c0.8,0.6,1.3,2.3,1.6,5.1c0.2,0.6,0.3,1.3,0.3,2c0,1.6-0.8,2.4-2.4,2.4c-0.7,0-1.6-0.5-2.6-1.6
		c-1-1.1-2-1.9-3-2.6s-2.5-0.9-4.6-0.9c-1.1,0-1.8,0.2-2.1,0.7c-0.3,0.5-0.4,1.4-0.4,2.7v29.8c0,1.8,0.4,2.9,1.1,3.4l0.7,0.4
		c1,0.6,1.4,1.3,1.4,2c0,1.4-1,2.2-3,2.2h-11.9c-2.1,0-3.1-0.7-3.1-2.2c0-0.5,0.1-0.9,0.3-1.1c0.2-0.2,0.6-0.5,1.1-0.8l0.7-0.4
		c0.8-0.5,1.1-1.6,1.1-3.4V353.4z"/>
	<path class="st2" d="M294.2,353.2c0-2-0.4-3.1-1.1-3.5l-0.6-0.3c-1-0.6-1.6-1.3-1.6-2.1c0-1.4,1-2.2,3.1-2.2h11.9
		c0.8,0,1.5,0.2,2.2,0.5c0.6,0.3,0.9,0.9,0.9,1.6c0,0.8-0.5,1.4-1.5,2.1l-0.7,0.3c-0.8,0.5-1.1,1.7-1.1,3.5v29.9
		c0,1.8,0.4,2.9,1.1,3.4l0.7,0.4c1,0.7,1.5,1.3,1.5,2c0,1.4-1,2.2-3.1,2.2H294c-2.1,0-3.1-0.7-3.1-2.2c0-0.5,0.1-0.9,0.3-1.1
		c0.2-0.2,0.6-0.5,1.2-0.9l0.6-0.4c0.8-0.4,1.1-1.5,1.1-3.4V353.2z"/>
	<path class="st2" d="M346.1,351.3c-2-1.6-4.2-2.4-6.8-2.4c-4.5,0-8.1,2-10.9,5.9c-2.4,3.6-3.6,7.8-3.6,12.8c0,4.9,1.1,9.2,3.3,12.7
		c2.4,4,6.2,6.1,11.5,6.1c4.1,0,7.6-1.6,10.8-4.8c0.4-0.4,0.8-0.8,1.2-1.2s0.8-0.8,1.3-1s0.9-0.4,1.5-0.4c0.6,0,1.1,0.2,1.5,0.7
		c0.4,0.4,0.6,1,0.6,1.6c0,1.3-0.7,2.7-2.1,4.1c-1.4,1.4-2.9,2.5-4.5,3.4c-3.6,2.2-7.8,3.3-12.5,3.3c-4.4,0-8.5-1-12.3-2.9
		c-3.8-1.9-6.8-4.6-9-8.1c-2.2-3.5-3.3-7.5-3.3-12c0-3.4,0.7-6.6,2.1-9.6c1.4-3,3.3-5.7,5.7-7.9c2.4-2.2,5.1-4,8.3-5.3
		c3.1-1.3,6.4-1.9,9.7-1.9c5.5,0,10.4,1.4,14.6,4.2c1.1,0.6,1.8,1.3,2.1,2.1c0.4,1.1,0.6,3.4,0.6,6.9c0,0.7-0.3,1.3-0.8,1.8
		c-0.5,0.5-1.1,0.7-1.9,0.7c-0.8,0-1.3-0.2-1.7-0.7c-0.4-0.5-0.8-1.3-1.4-2.5C348.8,354.2,347.5,352.4,346.1,351.3z"/>
	<path class="st2" d="M385.4,362.7c4.3,1.1,7.3,2.3,9.1,3.8c3,2.5,4.5,5.6,4.5,9.3c0,4.9-2,8.9-6,12c-3.7,2.8-8.4,4.2-14,4.2
		c-4.4,0-8.4-0.8-12-2.4c-1.9-1-3.6-2.2-5.2-3.8s-2.3-3.2-2.3-4.8c0-0.9,0.3-1.7,0.9-2.4c0.6-0.7,1.3-1.1,2.2-1.1
		c1.4,0,2.5,0.8,3.5,2.4c0.2,0.3,0.6,0.8,1,1.5s0.8,1.1,1.1,1.5c0.3,0.3,0.6,0.7,1,1s0.8,0.7,1.2,1c2.3,1.5,5,2.3,8,2.3
		c2.4,0,4.6-0.6,6.6-1.9c2-1.3,3-3.1,3-5.4c0-2.3-1.1-3.9-3.2-4.8c-1.6-0.8-4.3-1.6-8-2.3c-4.5-0.9-7.8-2-10-3.5
		c-3.7-2.6-5.5-6-5.5-10.1c0-2.1,0.5-4.2,1.6-6.2s2.5-3.7,4.3-5c3.2-2.4,7.4-3.6,12.6-3.6c5.1,0,9.7,1.1,13.8,3.3
		c1,0.6,1.5,1.2,1.7,1.9c0.3,1,0.5,2.8,0.5,5.6c0,1.7-0.8,2.6-2.4,2.6c-0.7,0-1.3-0.4-1.9-1.3s-1.3-2-2.2-3.3
		c-0.9-1.3-2-2.4-3.4-3.2c-1.4-0.8-3.3-1.2-5.6-1.2c-2,0-3.8,0.5-5.4,1.6c-1.6,1.1-2.4,2.6-2.4,4.4c0,2,0.7,3.4,2.1,4.3
		c1.4,0.9,3.3,1.7,5.8,2.3L385.4,362.7z"/>
</g>
</svg>
